#!OML:ASF X:\für Bonn\!DataBase\2005_08_12_Daniel\c3d\Daniel.ASF
:FULLY-SPECIFIED
:DEGREES
123
root 6.09205 16.3109 8.59749 886.181 -39.7851 -900.836
lowerback 38.5681 1.15219 -3.00158
upperback 10.3961 -2.82379 -3.98708
thorax -7.42124 -2.37885 -1.43026
lowerneck -3.84946 1.66498 -5.01292
upperneck -2.0746 2.37159 1.3723
head -0.075704 1.2027 1.28474
rclavicle 6.04305e-014 7.15625e-014
rhumerus -43.3832 3.95379 -92.7724
rradius 67.3145
rwrist 1.51679
rhand -27.3469 12.8957
rfingers 7.12502
rthumb -0.755172 -17.0828
lclavicle 6.04305e-014 7.15625e-014
lhumerus -25.496 15.5996 80.9812
lradius 72.8898
lwrist -7.03495
lhand -26.219 -0.596329
lfingers 7.12502
lthumb 0.334276 29.3832
rfemur -28.539 6.09454 21.58
rtibia 45.2163
rfoot -15.6806 2.67185
rtoes -15.9964
lfemur -2.27238 8.22375 -21.9212
ltibia 58.7119
lfoot -33.7441 -6.61613
ltoes -1.73338
124
root 5.99174 16.3118 8.50883 886.211 -39.7025 -900.941
lowerback 38.2563 1.02788 -2.95377
upperback 10.4414 -2.92539 -3.94998
thorax -7.26955 -2.42684 -1.3844
lowerneck -3.71776 1.74002 -4.9198
upperneck -2.05212 2.46226 1.24293
head -0.0910192 1.24727 1.22679
rclavicle 1.19271e-014 6.36111e-015
rhumerus -43.5281 3.98039 -92.7079
rradius 67.4303
rwrist 1.49194
rhand -27.2996 12.5245
rfingers 7.12502
rthumb -0.709493 -17.454
lclavicle 1.19271e-014 6.36111e-015
lhumerus -25.3962 15.3099 81.1964
lradius 73.043
lwrist -6.9438
lhand -26.2053 -0.586207
lfingers 7.12502
lthumb 0.347495 29.3933
rfemur -28.6769 6.52762 21.5453
rtibia 43.5364
rfoot -15.5347 1.74669
rtoes -15.5721
lfemur -1.45301 8.45122 -21.9271
ltibia 58.2892
lfoot -33.8401 -6.68928
ltoes -1.76552
125
root 5.89034 16.3069 8.41872 886.211 -39.6392 -901.052
lowerback 37.9993 0.903246 -2.90153
upperback 10.4915 -3.0367 -3.93018
thorax -7.13164 -2.48092 -1.35507
lowerneck -3.62321 1.82605 -4.75986
upperneck -2.00137 2.56773 1.10222
head -0.0906269 1.29867 1.15458
rclavicle 5.24792e-014 -4.77083e-015
rhumerus -43.6297 3.93206 -92.6671
rradius 67.5058
rwrist 1.53299
rhand -27.2087 12.1624
rfingers 7.12502
rthumb -0.621678 -17.8164
lclavicle 5.24792e-014 -4.77083e-015
lhumerus -25.2892 15.0594 81.3955
lradius 73.2066
lwrist -7.03905
lhand -26.1024 -0.539267
lfingers 7.12502
lthumb 0.446838 29.44
rfemur -28.7505 7.04631 21.4772
rtibia 41.886
rfoot -15.4443 0.718187
rtoes -14.6523
lfemur -0.584542 8.63841 -21.9453
ltibia 57.8626
lfoot -33.993 -6.76868
ltoes -1.73383
126
root 5.78806 16.3019 8.32765 886.259 -39.569 -901.141
lowerback 37.6792 0.776075 -2.89512
upperback 10.5119 -3.15061 -3.87484
thorax -7.00018 -2.53236 -1.26509
lowerneck -3.43693 1.94306 -4.63927
upperneck -2.01557 2.71124 0.975306
head -0.126907 1.37014 1.09229
rclavicle -8.50798e-014 -9.54166e-015
rhumerus -43.789 4.05817 -92.6242
rradius 67.6216
rwrist 1.49177
rhand -27.2437 11.8265
rfingers 7.12502
rthumb -0.655442 -18.1522
lclavicle -8.50798e-014 -9.54166e-015
lhumerus -25.1935 14.8738 81.6078
lradius 73.3704
lwrist -6.97904
lhand -26.1296 -0.472159
lfingers 7.12502
lthumb 0.420597 29.5072
rfemur -28.87 7.62432 21.3917
rtibia 40.2639
rfoot -15.4846 -0.291311
rtoes -14.2688
lfemur 0.198341 8.81784 -21.9718
ltibia 57.4796
lfoot -34.1838 -6.72703
ltoes -1.93882
127
root 5.68598 16.2914 8.23656 886.309 -39.5045 -901.287
lowerback 37.4118 0.659937 -2.87887
upperback 10.5407 -3.26034 -3.85039
thorax -6.87885 -2.58372 -1.21409
lowerneck -3.24322 2.0343 -4.46727
upperneck -2.03623 2.81837 0.822835
head -0.163774 1.42311 1.01285
rclavicle 7.95139e-015 4.92986e-014
rhumerus -43.9129 4.01775 -92.5562
rradius 67.6838
rwrist 1.63447
rhand -27.282 11.7069
rfingers 7.12502
rthumb -0.692491 -18.2717
lclavicle 7.95139e-015 4.92986e-014
lhumerus -25.1054 14.6696 81.8189
lradius 73.5091
lwrist -7.03189
lhand -26.1819 -0.487887
lfingers 7.12502
lthumb 0.370087 29.4915
rfemur -28.9376 8.34303 21.205
rtibia 38.6939
rfoot -15.7341 -1.22795
rtoes -14.218
lfemur 1.01749 9.02346 -22.0211
ltibia 57.0927
lfoot -34.4445 -6.78276
ltoes -1.73549
128
root 5.58273 16.2774 8.14508 886.379 -39.452 -901.409
lowerback 37.1167 0.54136 -2.83824
upperback 10.5686 -3.35826 -3.81238
thorax -6.7484 -2.62844 -1.16741
lowerneck -3.00492 2.13544 -4.26411
upperneck -2.07056 2.93644 0.660398
head -0.211307 1.48177 0.924575
rclavicle 8.5875e-014 2.06736e-014
rhumerus -44.0002 4.01552 -92.4926
rradius 67.7235
rwrist 1.687
rhand -27.3121 11.6072
rfingers 7.12502
rthumb -0.721507 -18.3714
lclavicle 8.5875e-014 2.06736e-014
lhumerus -24.9282 14.4287 82.0461
lradius 73.5528
lwrist -7.05341
lhand -26.4207 -0.554982
lfingers 7.12502
lthumb 0.139442 29.4247
rfemur -29.0176 9.18937 20.9639
rtibia 37.1849
rfoot -16.1782 -2.13853
rtoes -14.4446
lfemur 1.77324 9.14784 -22.101
ltibia 56.7513
lfoot -34.7183 -6.78933
ltoes -1.63986
129
root 5.47989 16.2601 8.05144 886.415 -39.3849 -901.543
lowerback 36.8665 0.425382 -2.83713
upperback 10.6059 -3.47671 -3.77246
thorax -6.6204 -2.68615 -1.09033
lowerneck -2.69326 2.24983 -3.99194
upperneck -2.16621 3.06651 0.434766
head -0.287109 1.54666 0.803858
rclavicle 1.51076e-014 -3.33958e-014
rhumerus -44.1138 4.06097 -92.4442
rradius 67.8202
rwrist 1.83487
rhand -27.4442 11.5901
rfingers 7.12502
rthumb -0.849082 -18.3879
lclavicle 1.51076e-014 -3.33958e-014
lhumerus -24.788 14.2789 82.2441
lradius 73.6705
lwrist -7.11705
lhand -26.5119 -0.535573
lfingers 7.12502
lthumb 0.0512902 29.4442
rfemur -29.052 10.2264 20.6507
rtibia 35.7741
rfoot -16.7859 -3.07646
rtoes -15.2425
lfemur 2.61025 9.30342 -22.1567
ltibia 56.4025
lfoot -35.044 -6.81113
ltoes -1.63363
130
root 5.37725 16.2364 7.957 886.46 -39.3455 -901.648
lowerback 36.613 0.298085 -2.7899
upperback 10.6331 -3.58947 -3.73638
thorax -6.50422 -2.7387 -1.0439
lowerneck -2.33477 2.36003 -3.74604
upperneck -2.30848 3.19111 0.259993
head -0.38502 1.60978 0.70292
rclavicle -3.89618e-014 2.38542e-014
rhumerus -44.2588 4.04563 -92.4011
rradius 67.9095
rwrist 1.93463
rhand -27.601 11.7361
rfingers 7.12502
rthumb -1.00054 -18.2413
lclavicle -3.89618e-014 2.38542e-014
lhumerus -24.5941 14.0745 82.4424
lradius 73.6872
lwrist -7.16562
lhand -26.7352 -0.534931
lfingers 7.12502
lthumb -0.164308 29.4447
rfemur -29.127 11.2988 20.3097
rtibia 34.4738
rfoot -17.452 -4.06695
rtoes -16.2952
lfemur 3.36844 9.43228 -22.2024
ltibia 56.1072
lfoot -35.3603 -6.82455
ltoes -1.60913
131
root 5.27318 16.2133 7.86179 886.53 -39.298 -901.752
lowerback 36.3625 0.180227 -2.73049
upperback 10.6478 -3.68264 -3.686
thorax -6.4015 -2.78045 -0.99617
lowerneck -2.17003 2.44894 -3.59921
upperneck -2.30351 3.30092 0.160582
head -0.408284 1.66461 0.645618
rclavicle -4.77083e-015 -6.99722e-014
rhumerus -44.45 3.97113 -92.3055
rradius 68.0748
rwrist 2.09925
rhand -27.6857 12.008
rfingers 7.12502
rthumb -1.08232 -17.969
lclavicle -4.77083e-015 -6.99722e-014
lhumerus -24.447 13.8791 82.6832
lradius 73.8059
lwrist -7.21832
lhand -26.9156 -0.664052
lfingers 7.12502
lthumb -0.338534 29.3154
rfemur -29.2549 12.6356 19.8641
rtibia 33.3202
rfoot -18.2447 -5.18606
rtoes -17.3316
lfemur 4.11701 9.57053 -22.2497
ltibia 55.8099
lfoot -35.7252 -6.81125
ltoes -1.68794
